/* XPM */
static char * icon32x32_3_xpm[] = {
"32 32 6 1",
" 	c None",
".	c #000000",
"+	c #FFFFFF",
"@	c #FFAE00",
"#	c #D7970D",
"$	c #6BE73F",
"                                ",
"                                ",
"                                ",
"            .                   ",
"           .+.....              ",
"           .@@@@@+.             ",
"           .@@@@@+......        ",
"           .@@@@@+####.         ",
"          .@@@@@@+###.          ",
"          .@@@@@@+##.           ",
"          .@@@@@@+##.           ",
"          .#.....####.          ",
"          .#   ..#####.         ",
"          .#    ........        ",
"           .#                   ",
"           .#                   ",
"           .#                   ",
"           .#                   ",
" ............     ............  ",
" .+$$$..+$$$.......+$$$..+$$$.  ",
" ..$$....$$..+$.+$..$$....$$..  ",
"  .$$.$$.$$..$$.$$..$$.$$.$$.   ",
"  .$$.$$.$$.$$$$$$$.$$.$$.$$.   ",
"  .$$$$$$$$..$$.$$..$$$$$$$$.   ",
"  ..$$$$$$...$$.$$...$$$$$$..   ",
"   .$$..$$..$$$$$$$..$$..$$.    ",
"   .$$..$$...$$.$$...$$..$$.    ",
"   ........ ....... ........    ",
"                                ",
"                                ",
"                                ",
"                                "};
