/* XPM */
static char * icon16x16_2_xpm[] = {
"16 16 6 1",
" 	c None",
".	c #000000",
"+	c #FFAE00",
"@	c #FFFFFF",
"#	c #D7970D",
"$	c #6BE73F",
"   ......       ",
"   .++++@.....  ",
"   .++++@###.   ",
"  .++++@###.    ",
"  .++++@##.     ",
"  .++++@##.     ",
"  .+....###.    ",
"  .#   ......   ",
"  .#            ",
"...#...  ... ...",
".$...$.  .$...$.",
".$.$.$....$.$.$.",
".$.$.$.$$.$.$.$.",
".$$.$$.$$.$$.$$.",
".$...$....$...$.",
"... ...  ... ..."};
